# xmcd CD database file
#
# Track frame offsets:
#	150
#	14427
#	33190
#	47299
#	64001
#	77358
#	91357
#	108169
#	121889
#	138412
#	150220
#
# Disc length: 2228 seconds
#
# Revision: 0
# Processed by: cddbd v1.5.1PL2 Copyright (c) Steve Scherf et al.
# Submitted via: CDex 1.51
#
DISCID=7108b20b
DTITLE=Dixie Wheels - Call 1-800-Country
DYEAR=1999
DGENRE=Country
TTITLE0=Rose Of San Antone
TTITLE1=If You Gonna Play In Texas
TTITLE2=Amarillo By Morning
TTITLE3=Two Dozen Roses
TTITLE4=Uncle Pen
TTITLE5=Much Too Young
TTITLE6=Thank God Im a Countryboy
TTITLE7=Mercury Blues
TTITLE8=Cajun Medley
TTITLE9=Fox On The Run
TTITLE10=Dixieland
EXTD=YEAR: 1999
EXTT0=
EXTT1=
EXTT2=
EXTT3=
EXTT4=
EXTT5=
EXTT6=
EXTT7=
EXTT8=
EXTT9=
EXTT10=
PLAYORDER=
